<svg width="62" height="62" viewBox="0 0 32 32" xmlns="http://www.w3.org/2000/svg">
    <defs>
        <!-- 3D Ocean gradient -->
        <radialGradient id="oceanGradient" cx="0.35" cy="0.25" r="0.9">
            <stop offset="0%" style="stop-color:#60a5fa;stop-opacity:1" />
            <stop offset="40%" style="stop-color:#3b82f6;stop-opacity:1" />
            <stop offset="100%" style="stop-color:#1e40af;stop-opacity:1" />
        </radialGradient>

        <!-- 3D Land gradient -->
        <radialGradient id="landGradient" cx="0.35" cy="0.25" r="0.8">
            <stop offset="0%" style="stop-color:#4ade80;stop-opacity:1" />
            <stop offset="60%" style="stop-color:#22c55e;stop-opacity:1" />
            <stop offset="100%" style="stop-color:#15803d;stop-opacity:1" />
        </radialGradient>

        <!-- Strategic red gradient -->
        <radialGradient id="redGradient" cx="0.3" cy="0.3" r="1.1">
            <stop offset="0%" style="stop-color:#f87171;stop-opacity:1" />
            <stop offset="100%" style="stop-color:#dc2626;stop-opacity:1" />
        </radialGradient>

        <!-- 3D shadow -->
        <filter id="shadow3d">
            <feDropShadow dx="2" dy="2" stdDeviation="2" flood-opacity="0.4"/>
        </filter>
    </defs>

    <!-- Main globe -->
    <circle cx="16" cy="16" r="14.5" fill="url(#oceanGradient)" filter="url(#shadow3d)"/>

    <!-- Larger continents -->
    <!-- North America -->
    <path d="M 6 9 Q 4 7 8 6 Q 13 5 17 8 Q 10 7 20 10 Q 18 15 16 12 Q 11 15 8 13 Q  11 6 9 Z"
          fill="url(#landGradient)" stroke="#166534" stroke-width="0.4"/>

    <!-- Europe/Asia -->
    <path d="M 20 7 Q 25 5 26 8 Q 31 12 28 15 Q 25 14 23 15 Q 21 12 20 13 Q 18 10 20 7 Z"
          fill="url(#landGradient)" stroke="#166534" stroke-width="0.4"/>

    <!-- Africa -->
    <path d="M 13 16 Q 16 15 19 18 Q 20 22 18 26 Q 15 25 13 22 Q 11 19 13 16 Z"
          fill="url(#landGradient)" stroke="#166534" stroke-width="0.4"/>

    <!-- South America -->
    <path d="M 8 20 Q 11 18 13 22 Q 12 27 9 26 Q 6 23 7 21 Q 7 20 8 20 Z"
          fill="url(#landGradient)" stroke="#166534" stroke-width="0.4"/>

    <!-- Australia/Oceania -->
    <path d="M 23 22 Q 27 21 28 24 Q 26 25 24 25 Q 23 23 23 22 Z"
          fill="url(#landGradient)" stroke="#166534" stroke-width="0.4"/>

    <!-- Strategic command points (red elements) -->
    <circle cx="10" cy="11" r="1.5" fill="url(#redGradient)" stroke="#991b1b" stroke-width="0.3"/>
    <circle cx="24" cy="12" r="1.5" fill="url(#redGradient)" stroke="#991b1b" stroke-width="0.3"/>
    <circle cx="15" cy="20" r="2.5" fill="url(#redGradient)" stroke="#991b1b" stroke-width="0.3"/>

    <!-- 3D sphere highlight -->
    <circle cx="16" cy="16" r="14.5" fill="none" stroke="rgba(255,255,255,0.3)" stroke-width="0.8"/>

    <!-- Strong 3D highlight -->
    <ellipse cx="11" cy="11" rx="4" ry="7" fill="rgba(255,255,255,0.25)" transform="rotate(-25 11 11)"/>

    <!-- Subtle inner shadow for depth -->
    <circle cx="16" cy="16" r="13" fill="none" stroke="rgba(0,0,0,0.15)" stroke-width="1"/>
</svg>
